PathFileType	4	(X/Y/Z)	pose_F01_0-96.trc
DataRate	CameraRate	NumFrames	NumMarkers	Units	OrigDataRate	OrigDataStartFrame	OrigNumFrames
30	30	11	21	m	30	48	96
Frame#	Time	CHip			RHip			RKnee			RAnkle			RBigToe			RSmallToe			RHeel			LHip			LKnee			LAnkle			LBigToe			LSmallToe			LHeel			Neck			Nose			RShoulder			RElbow			RWrist			LShoulder			LElbow			LWrist			
		X1	Y1	Z1	X2	Y2	Z2	X3	Y3	Z3	X4	Y4	Z4	X5	Y5	Z5	X6	Y6	Z6	X7	Y7	Z7	X8	Y8	Z8	X9	Y9	Z9	X10	Y10	Z10	X11	Y11	Z11	X12	Y12	Z12	X13	Y13	Z13	X14	Y14	Z14	X15	Y15	Z15	X16	Y16	Z16	X17	Y17	Z17	X18	Y18	Z18	X19	Y19	Z19	X20	Y20	Z20	X21	Y21	Z21	
48	1.6	-0.2595102676666845	1.8449372788472236	-0.5811537581223575	-0.275608456504877	1.8448400419687994	-0.5166376861931832	-0.2737698252361814	1.7407712235918635	-0.5700030081627145													-0.2472456771963942	1.8418259158680192	-0.6421185185756826	-0.24793715759779986	1.7116926460592157	-0.6541277195806944													-0.26374081640018787	2.00000241497291	-0.6343291317988283	-0.25087243921764485	2.0495392967438684	-0.6129144422364876	-0.282516183398498	1.9991657749687302	-0.5522447309409219	-0.26116584639344065	1.9761762001719394	-0.48845107566681045	-1.8729990121774316	1.894155205072336	1.3975083297696527	-0.24264460008020852	2.003412782667127	-0.7162571009168412	-0.20253838534375493	1.9770339926628633	-0.6488311753109831	-0.19474210229520597	1.9850878003983385	-0.5576034188292729
49	1.6333333333333333	-0.2580214222818185	1.8411597426138757	-0.5739427981801248	-0.2731117619118258	1.8384795295082301	-0.5059172690743188	-0.2737698252361814	1.7407712235918635	-0.5700030081627145													-0.24512903009913306	1.8412594587727658	-0.6339455907330033	-0.24566640083481617	1.710448368599326	-0.6521421893607035													-0.2598394607678447	1.9993300241269403	-0.6301990756248189	-0.2469175587707165	2.051888403145247	-0.6093239178442371	-0.27778280542306294	1.9961047248817532	-0.5450113823943031	-0.2804904445374877	1.9726466507965883	-0.46376144605259045	-0.22391854898121938	1.9961986070881177	-0.4610164152850379	-0.23970283047291685	2.0061140961386617	-0.7070671842438077	-0.19191092286649	1.9694620747300302	-0.6485176252756297	-0.1896690235290834	1.9905531280406512	-0.5417727568182694
50	1.6666666666666667	-0.25520373748489716	1.8390537140067076	-0.5642153506520635	-0.2690161990134159	1.8362046998447974	-0.5014270949567402	-0.2737698252361814	1.7407712235918635	-0.5700030081627145													-0.2412865966126202	1.8418134039784138	-0.6298343762916266	-0.2433956440718325	1.7092040911394362	-0.6501566591407124													-0.25946402031878063	1.9948463922458384	-0.6189550159209356	-0.24497343047198852	2.0542365489917818	-0.6035004644621416	-0.2770391233680017	1.993184885465305	-0.5333329007812599	-0.2826843526746889	1.949348117964067	-0.415576867408703	-0.25917435438562325	1.9837346631990402	-0.4337917342556909	-0.23518194762034347	1.9991523781799512	-0.708576846613216	-0.1949874272246925	1.9468320353254285	-0.7036244586571497	-0.18347734870628052	1.9766040100806055	-0.6008287018369681
51	1.7	-0.2509190436897912	1.833816952001659	-0.5680328199112514	-0.2686268385772736	1.8301473447792835	-0.500883781524041	-0.2737698252361814	1.7407712235918635	-0.5700030081627145													-0.23880873784295237	1.8352860814261736	-0.6318674825321436	-0.24112488730884882	1.7079598136795464	-0.6481711289207215													-0.25638748542491624	1.995224786903643	-0.6179468248283078	-0.24285164273345447	2.0563999994625233	-0.6060465868721552	-0.2759788241401453	1.9929798629881277	-0.5301128252968362	-0.2857239136466151	1.9351319488194387	-0.42199673135927457	-0.25847394628726844	1.9844307628239304	-0.47328987840657194	-0.23207942116785887	1.996935987088391	-0.7075030789138027	-0.197244916719988	1.9281664025044212	-0.7208759743441905	-0.1977539398203088	1.971678970482272	-0.6498464101227674
52	1.7333333333333334	-0.24993055781435844	1.8367110865649905	-0.5736697743321036	-0.2628399125954802	1.8331041758828917	-0.5077866789622619	-0.2737698252361814	1.7407712235918635	-0.5700030081627145													-0.2325756942900756	1.8370069842440988	-0.6386403003155908	-0.23885413054586513	1.7067155362196567	-0.6461855987007306													-0.2542664682128313	1.9956165178583454	-0.6201318695992936	-0.24283796956127177	2.0552369202305862	-0.6062417310589308	-0.27404139415229506	1.9928390694243348	-0.5323780274362542	-0.28315281650317914	1.926634323686847	-0.4216810038356107	-0.2634810629000582	1.9722926457691066	-0.4944890151374266	-0.2298740724396213	1.9970916431765449	-0.7097368697726489	-1.2609070757178493	1.8396259684618652	0.35059082757465826	-0.19586959054739314	1.973407470312902	-0.663839950114782
53	1.7666666666666666	-0.24853742789901812	1.8399678033356277	-0.5882725527486837	-0.25907201979659444	1.837818902471238	-0.5212743607316067	-0.2737698252361814	1.7407712235918635	-0.5700030081627145													-0.2310894222314864	1.84290328811519	-0.6530576953301085	-0.23872366970844358	1.7042320288103603	-0.6544526946835554													-0.2527633691462841	1.995120142389478	-0.6335585345608644	-0.23968480503354192	2.0554638346615404	-0.6136621931579312	-0.2728780445146048	1.9913728607615646	-0.5460149514110663	-0.28230295625632545	1.9269123316829322	-0.42698585353138985	-0.2602137075888512	1.9759642261264232	-0.5025636040943198	-0.23114798518036989	2.0013811080828328	-0.7158785587958607	-1.2746777016878001	1.8373027718142814	0.37078915432031073	-0.19801653421410678	1.9825449216509603	-0.7128625845247761
54	1.8	-0.24476186508292086	1.8332356587974692	-0.6007283069767678	-0.261197521834793	1.832040618076788	-0.5357091128081314	-0.2737698252361814	1.7407712235918635	-0.5700030081627145													-0.23315881298405125	1.8340024012710414	-0.6670421762552317	-0.238593208871022	1.701748521401064	-0.6627197906663801													-0.24762487164365976	1.9933846493915317	-0.6438664675363914	-0.23949185083661118	2.055611176843581	-0.6220733136336498	-0.2701941010588281	1.9917837289843514	-0.5542961809738635	-0.28402983592317044	1.9236796409714507	-0.43042388178292007	-0.26508465727540664	1.9670344043041739	-0.5061155587252776	-0.22239747943555424	1.998295467807417	-0.7335436590900781	-0.1907812459594463	1.9354756872965706	-0.7609696743319821	-0.19282439006555555	1.9767815426337647	-0.6839180594018381
55	1.8333333333333333	-0.2487166479645609	1.8280995466189152	-0.6214784137593358	-0.26436509423488486	1.827188463349824	-0.5535525222103453	-0.2737698252361814	1.7407712235918635	-0.5700030081627145													-0.2326450312408972	1.8284789620261743	-0.6838285901991813	-0.23846274803360046	1.6992650139917675	-0.6709868866492049													-0.24748291447253248	1.9888892693676097	-0.6516197939080397	-0.2383709459526288	2.0546965121697167	-0.6273279481164201	-0.27013000922532937	1.9846418852759566	-0.5610956650540172	-0.28266067614582147	1.909280508735475	-0.44746992915159756	-0.25996551848346283	1.9530805733283574	-0.5300972362624579	-0.22219675319490226	1.9931498725806631	-0.7419204397668573	-1.2026655756038718	1.842628700361743	0.25608316787873164	-0.1903786726380417	1.966147510589847	-0.6727362589538575
56	1.8666666666666667	-0.24861841649930236	1.823473416316095	-0.6332234309903231	-0.26241696728195346	1.8216483991567514	-0.567627788603272	-0.2737698252361814	1.7407712235918635	-0.5700030081627145													-0.23405840176134465	1.8233306640804712	-0.7019747940966671	-0.2394164963252413	1.7041057683929672	-0.6704692563186612													-0.24589794951514155	1.9850879343375771	-0.6555279074592009	-0.238308351358705	2.053362993564034	-0.6269784881281252	-0.26658998256204086	1.9805451980472517	-0.5671635245135798	-0.2860669395557164	1.9088301795791627	-0.4687006655056621	-0.28419615483029964	1.9396762375161538	-0.5088031778032741	-0.22344352234603265	1.9907343591215596	-0.7465508948067434	-1.1489635412657524	1.8199296720670501	0.16469291606263495	-0.1948386741555568	1.9606002769508963	-0.7079836906144958
57	1.9	-0.2502539495722508	1.8377503759825191	-0.6325358800748357	-0.2657649808520648	1.8360083848932025	-0.567410158496511	-0.2737698252361814	1.7407712235918635	-0.5700030081627145													-0.23651659379329087	1.8381046497954268	-0.6984341120360242	-0.24037024461688217	1.7089465227941671	-0.6699516259881173													-0.2491519454770753	1.9941064511812354	-0.6597978175196298	-0.23893670842945963	2.059124280977518	-0.6300833827685252	-0.2691009682234153	1.9866949578194493	-0.577028935381804	-0.28111565328732774	1.9357784401406455	-0.47609647628897755	-0.2673263758848348	1.9842546602229942	-0.518941393213386	-0.225605167067828	2.0038585982163433	-0.7476401025903369	-1.1783696174354137	1.8213144916237785	0.20265354167021843	-0.19925268024026596	1.9764226432727812	-0.7168861967264861
58	1.9333333333333333	-0.25188948264519917	1.8520273356489432	-0.6318483291593484	-0.2691129944221761	1.8503683706296536	-0.56719252838975	-0.2737698252361814	1.7407712235918635	-0.5700030081627145													-0.23897478582523707	1.8528786355103823	-0.6948934299753813	-0.241323992908523	1.713787277195367	-0.6694339956575734													-0.25211827718180974	2.006134354102978	-0.662643782941912	-0.23947529765777203	2.0681432115649714	-0.6341849534707436	-0.27389585470373834	2.0008933151204897	-0.5779133355094928	-0.2795252442779956	1.952276176921591	-0.47330353174603557	-0.266569450862852	2.008772607145066	-0.5130331153909488	-0.22749818280227257	2.0122829202769847	-0.7551430184455783	-1.1318451631986854	1.8413536235100758	0.13001794078533377	-0.20366668632497512	1.992245009594666	-0.7257887028384763
